<svg xmlns="http://www.w3.org/2000/svg" xmlns:xlink="http://www.w3.org/1999/xlink" version="1.1" x="0px" y="0px" viewBox="0 0 50 62.5" style="enable-background:new 0 0 50 50;" xml:space="preserve"><g><path d="M33.5,5.9l-2.4,2.4c-0.8-0.5-1.6-0.8-2.5-1V3.9h-2.3v7c3,0,5.4,2.4,5.4,5.4c0,3-2.4,5.4-5.4,5.4v7h2.3v-3.3   c0.9-0.2,1.7-0.6,2.5-1l2.4,2.3l3.2-3.2L34.4,21c0.5-0.8,0.8-1.6,1-2.5h3.3V14h-3.3c-0.2-0.9-0.6-1.7-1-2.5l2.3-2.3L33.5,5.9z"/><path d="M21,16.3c0,3,2.4,5.4,5.4,5.4V10.9C23.4,10.9,21,13.3,21,16.3z"/><path d="M3.8,28.2c-0.2,0.9-1.2,2.3-0.3,4.2L4.2,34c0.5,0.5,0,0.9-0.2,2.2c-0.3,1.6,0.8,3.1,2.4,3.3c7.3,1.1,7.6,0.9,7.6,0.8v7.8   l12.3-1.2v-1.6h10.1l1.7,2.1h5.9c0.4,0.9,1.3,1.5,2.3,1.5c1.4,0,2.6-1.1,2.6-2.6c0-1.4-1.1-2.6-2.6-2.6c-1,0-1.9,0.6-2.3,1.5h-4.9   l-1.7-2.1H26.4v-3.1H39c0.4,0.9,1.3,1.5,2.3,1.5c1.4,0,2.6-1.1,2.6-2.6c0-1.4-1.1-2.6-2.6-2.6c-1.1,0-2,0.6-2.3,1.5H26.4V35h7   l1.7-2.2h3.1c0.4,0.9,1.3,1.5,2.3,1.5c1.4,0,2.6-1.1,2.6-2.6c0-1.4-1.1-2.6-2.6-2.6c-1,0-1.9,0.6-2.3,1.5H34L32.4,33h-6v-4.3h-2.3   v-3.3c-0.9-0.2-1.7-0.6-2.5-1l-2.3,2.3L16,23.4l2.3-2.3c-0.5-0.8-0.8-1.6-1-2.5H14V14h3.3c0.2-0.9,0.6-1.7,1-2.5L16,9.1l3.2-3.2   l2.3,2.4c0.8-0.5,1.7-0.8,2.5-1V3.9h2.3V1.7C18.6-0.7,12.4,3.7,9.2,6.9c-1.6,1.6-2.4,3.7-2.4,5.9c-0.2,2.3,0.9,3-4.5,9.8   C-1.3,27.1,3.8,28.2,3.8,28.2z"/></g><text x="0" y="65" fill="#000000" font-size="5px" font-weight="bold" font-family="'Helvetica Neue', Helvetica, Arial-Unicode, Arial, Sans-serif">Created by Vectors Market</text><text x="0" y="70" fill="#000000" font-size="5px" font-weight="bold" font-family="'Helvetica Neue', Helvetica, Arial-Unicode, Arial, Sans-serif">from the Noun Project</text></svg>